<svg width="2362" height="266" viewBox="0 0 2362 266" fill="none" xmlns="http://www.w3.org/2000/svg">
<path fill-rule="evenodd" clip-rule="evenodd" d="M106.796 0.164505L88.1132 0.328384L90.2727 5.44105C91.4606 8.25252 93.4218 13.0505 94.6307 16.1034C97.0641 22.2465 97.0858 21.8828 93.8332 29.4866C93.0302 31.3644 89.4238 40.4432 85.8193 49.6616C82.2154 58.88 78.9665 67.1208 78.6009 67.9743C77.0283 71.64 64.6396 102.523 61.6671 110.187C59.8794 114.796 56.6052 123.037 54.3905 128.499C52.1765 133.962 50.154 139.13 49.8968 139.984C49.6397 140.837 47.8055 145.446 45.8208 150.226C43.8366 155.006 40.5004 163.247 38.4079 168.539C34.7172 177.874 31.5843 185.759 23.6075 205.785C21.4994 211.077 18.1347 219.458 16.1295 224.408C6.59371 247.955 0 264.767 0 265.533C0 265.79 4.67031 265.999 10.3792 265.996L20.7583 265.993L25.8401 252.805C28.6354 245.552 31.9226 237.243 33.1452 234.341C34.3677 231.439 36.7844 225.433 38.5151 220.994C40.2458 216.556 43.1965 209.013 45.0716 204.233C46.9467 199.453 48.8775 194.425 49.3621 193.06C49.846 191.694 50.703 189.529 51.2656 188.249L52.2893 185.921H108.727H165.164L170.853 200.043C173.983 207.81 177.276 215.981 178.173 218.201C179.069 220.42 181.688 226.705 183.992 232.168C186.296 237.631 190.228 247.129 192.73 253.274C195.232 259.42 197.54 264.798 197.86 265.224C198.307 265.822 204.035 266 222.798 266H247.154L246.65 264.293C246.085 262.38 239.961 247.386 235.686 237.445C232.63 230.337 224.671 211.149 219.078 197.405C217.134 192.625 214.835 187.178 213.971 185.3C213.106 183.422 211.486 179.651 210.37 176.919C209.255 174.188 206.744 168.182 204.792 163.573C202.839 158.964 199.91 151.84 198.284 147.743C196.658 143.646 194.56 138.618 193.623 136.569C192.684 134.521 190.037 128.236 187.738 122.602C176.578 95.246 174.851 91.0558 173.669 88.4597C172.53 85.9599 165.992 70.5543 154.571 43.4539C152.412 38.3326 149.342 31.0695 147.747 27.3139C146.152 23.5582 142.981 15.8805 140.699 10.2533L136.551 0.0204849L131.015 0.0105515C127.97 0.00434375 117.072 0.0738726 106.796 0.164505ZM536.136 3.41424C535.5 5.29207 533.786 10.3203 532.325 14.5881C530.864 18.8559 525.414 34.9183 520.214 50.2824C515.014 65.6464 506.232 91.486 500.699 107.704C495.166 123.921 485.771 151.856 479.823 169.781C473.875 187.705 468.856 202.79 468.67 203.302C468.42 203.993 468.17 203.832 467.706 202.681C466.228 199.02 460.677 182.938 457.528 173.195C455.653 167.391 453.447 160.826 452.629 158.607C451.002 154.197 441.228 125.135 437.703 114.222C435.252 106.635 424.099 73.493 420.259 62.3874C418.902 58.461 416.796 52.0361 415.58 48.1097C414.364 44.1833 410.545 32.7301 407.092 22.6581C403.639 12.5861 400.511 3.4372 400.141 2.32789L399.467 0.310387H389.761H380.054L378.013 6.98367C376.891 10.6543 375.006 16.4504 373.826 19.8646C371.406 26.8638 371.505 26.564 361.543 57.1109C357.535 69.4021 353.181 82.3917 351.868 85.9767C350.555 89.5616 348.625 95.4279 347.58 99.0128C346.535 102.598 344.329 109.442 342.679 114.222C341.028 119.002 336.833 131.712 333.355 142.467C329.878 153.222 324.819 168.725 322.113 176.919C319.408 185.114 316.486 194.053 315.62 196.784C314.754 199.516 313.911 202.169 313.747 202.681C313.335 203.964 312.107 201.534 309.912 195.095C308.948 192.269 306.702 186.464 304.919 182.196C303.137 177.928 301.312 173.459 300.863 172.264C300.415 171.069 297.535 163.666 294.464 155.813C291.393 147.961 288.018 139.301 286.964 136.569C285.91 133.838 281.812 123.502 277.857 113.601C273.901 103.7 267.613 87.9166 263.882 78.5274C260.151 69.1383 256.018 58.9421 254.697 55.8693C250.779 46.7558 239.537 18.5132 237.028 11.4842C235.75 7.8993 234.495 4.68681 234.241 4.34539C233.987 4.00397 233.596 2.95673 233.373 2.0175L232.965 0.310387H207.254H181.541L182.544 2.63828C184.093 6.23564 193.147 28.4431 195.894 35.3839C197.245 38.7981 200.274 46.2008 202.624 51.8343C204.974 57.4678 208.205 65.2895 209.805 69.2159C212.858 76.7135 216.457 85.4484 221.826 98.3921C223.596 102.66 226.823 110.562 228.998 115.951C231.173 121.341 233.369 126.648 233.879 127.746C234.389 128.843 236.041 132.814 237.551 136.569C239.06 140.325 241.325 145.772 242.584 148.674C243.843 151.577 246.489 158.002 248.464 162.952C250.439 167.903 253.37 175.166 254.977 179.092C256.584 183.019 259.989 191.399 262.543 197.715C265.096 204.032 269.565 215.066 272.471 222.236C275.379 229.406 277.82 235.551 277.897 235.893C277.974 236.234 278.26 237.072 278.532 237.755C280.14 241.785 282.172 246.695 282.899 248.308C283.361 249.332 284.281 251.567 284.942 253.274C285.604 254.981 286.855 258.131 287.722 260.273C289.366 264.336 289.377 264.374 289.377 265.379C289.377 265.77 293.597 266 300.797 266H312.216L321.646 237.289C326.832 221.499 332.7 203.551 334.686 197.405C336.672 191.259 338.598 185.393 338.967 184.369C340.109 181.197 350.927 148.432 355.365 134.707C357.683 127.537 360.633 118.598 361.921 114.842C365.278 105.057 375.353 73.583 375.811 71.4538C376.026 70.4518 376.426 69.9024 376.714 70.2122C376.998 70.5176 381.153 82.5003 385.947 96.8401C398.03 132.987 420.822 200.571 430.957 230.306C441.551 261.389 441.216 260.418 441.99 262.275C442.712 264.006 442.861 264.477 442.973 265.379C443.022 265.768 447.396 266 454.693 266H466.336L469.005 258.396C470.473 254.213 475.413 239.757 479.983 226.271C484.553 212.784 489.018 199.655 489.906 197.095C490.795 194.534 492.862 188.528 494.501 183.748C496.138 178.968 498.915 171.007 500.67 166.056C502.426 161.105 504.841 153.982 506.038 150.226C507.234 146.471 509.976 138.509 512.13 132.534C514.285 126.56 517.024 118.738 518.217 115.153C523.492 99.3083 529.884 80.5964 530.41 79.4586C530.726 78.7757 533.112 71.9317 535.713 64.2497C538.313 56.5677 542.931 43.0194 545.973 34.1424C554.594 8.98875 557.25 0.907565 556.982 0.638771C556.846 0.502202 552.359 0.302935 547.012 0.195541L537.289 0L536.136 3.41424ZM106.946 47.1742C106.733 48.0253 105.194 52.0063 103.526 56.0202C101.858 60.0341 99.0451 66.9314 97.2748 71.347C95.5044 75.7625 93.8072 79.813 93.5029 80.3481C93.1993 80.8832 91.9947 83.9747 90.8261 87.2182C89.658 90.4617 86.9848 97.3057 84.8855 102.427C82.7861 107.548 79.686 115.356 77.9962 119.778C76.3064 124.199 74.694 128.11 74.4121 128.468C74.1308 128.827 73.5464 130.238 73.1139 131.603C72.4143 133.814 61.9317 160.553 58.8328 168.033C58.1698 169.633 57.6276 171.03 57.6276 171.137C57.6276 171.244 80.4233 171.272 108.284 171.198C136.146 171.125 158.883 170.846 158.813 170.578C158.525 169.478 145.94 138.571 143.326 132.544C141.774 128.964 139.036 122.4 137.241 117.956C135.447 113.512 131.41 103.591 128.272 95.909C125.133 88.227 121.089 78.3101 119.285 73.8716C117.482 69.4331 115.12 63.7065 114.036 61.1459C112.954 58.5852 111.182 54.0467 110.098 51.0608C109.015 48.0749 107.95 45.631 107.731 45.6291C107.513 45.6278 107.159 46.3231 106.946 47.1742ZM2139.98 46.69C2130.57 48.421 2125.5 50.258 2116.01 55.378C2100.12 63.944 2088.97 75.726 2081.04 92.314C2073.84 107.363 2072.53 114.033 2072.59 135.25C2072.64 152.726 2072.79 154.22 2075.43 162.25C2085.88 194.069 2105.46 212.118 2137.98 219.912C2146.48 221.949 2166.11 221.93 2175.81 219.877C2193.21 216.194 2214.38 202.055 2220.65 189.939C2222.17 186.989 2222.14 186.796 2219.86 184.992C2218.55 183.96 2216.06 181.795 2214.32 180.183C2212.58 178.57 2210.7 177.25 2210.15 177.25C2209.6 177.25 2208.24 178.714 2207.14 180.503C2201.64 189.402 2186.7 200.765 2176.5 203.807C2159.09 209.002 2137.16 204.628 2124.85 193.507C2117.27 186.658 2109.92 174.19 2105.85 161.25C2103.69 154.374 2103.49 152.044 2103.51 133.25C2103.54 110.083 2104.52 104.938 2111.68 90.51C2116.79 80.212 2127.21 69.442 2136.07 65.299C2145.22 61.017 2155.76 59.563 2166.12 61.149C2181.14 63.449 2190.14 68.66 2200.75 81.212C2203.79 84.808 2206.81 87.882 2207.47 88.044C2208.14 88.205 2211.18 85.007 2214.25 80.937L2219.82 73.537L2216.15 69.023C2214.13 66.541 2210.01 62.66 2206.98 60.399C2200.64 55.66 2185.44 48.68 2178.34 47.252C2169.67 45.508 2148.13 45.192 2139.98 46.69ZM2288.9 46.283C2268.38 48.683 2254.12 57.936 2246.31 73.93C2242.52 81.669 2242.48 81.874 2242.48 93.75C2242.48 105.086 2242.66 106.11 2245.57 112.25C2250.84 123.364 2266.46 135.545 2281.48 140.261C2289.12 142.658 2314.37 152.41 2318.95 154.734C2329.07 159.863 2335.92 171.404 2334.59 181.118C2334.25 183.666 2332.8 188.138 2331.37 191.057C2326.7 200.634 2314.7 206.25 2298.91 206.25C2282.75 206.25 2270.93 201.669 2257.36 190.145C2252.79 186.265 2248.6 183.371 2248.04 183.714C2246.51 184.659 2237.98 195.963 2237.98 197.045C2237.98 198.762 2245.86 205.685 2252.14 209.489C2259.19 213.761 2266.23 216.574 2276.98 219.42C2287.79 222.279 2309.41 222.244 2320.36 219.349C2344.46 212.978 2357.9 199.832 2361.01 179.585C2363.48 163.524 2358.84 150.071 2346.97 138.876C2338.55 130.936 2332.49 127.752 2311.48 120.246C2285.31 110.892 2280.7 108.72 2275.71 103.385C2265.58 92.554 2266.17 77.243 2277.07 67.907C2283.11 62.742 2289.59 60.837 2300.98 60.877C2316.65 60.931 2326.42 64.773 2338.69 75.7L2344.25 80.65L2346.65 77.7C2349.81 73.807 2354.98 66.081 2354.98 65.247C2354.98 64.191 2343.91 56.261 2338.98 53.787C2324.24 46.385 2308.37 44.006 2288.9 46.283ZM682.233 48.007L613.982 48.264V56.241V64.218L641.04 64.484L668.099 64.75L668.013 141.5L667.927 218.25H682.455H696.983L696.981 180C696.979 148.701 697.355 103.251 697.89 70L697.983 64.25H724.983H751.983V56.309C751.983 51.941 751.645 48.229 751.233 48.059C750.821 47.889 719.77 47.866 682.233 48.007ZM774.877 48.25C774.82 48.525 774.708 86.887 774.628 133.5L774.483 218.249L789.233 218.25H803.983V178.25V138.25H844.369H884.754L885.491 165.716C885.896 180.822 886.038 198.822 885.808 205.716L885.391 218.25H900.269H915.146L914.602 214.5C914.303 212.438 914.042 174.188 914.021 129.5L913.983 48.25H899.415H884.846L885.389 80.5C885.688 98.238 885.661 114.887 885.328 117.5L884.724 122.25H844.353H803.983V85.301V48.353L789.481 48.051C781.506 47.886 774.934 47.975 774.877 48.25ZM950.733 48.499C950.595 48.911 950.601 87.274 950.744 133.749L951.005 218.25H1006.49C1058.64 218.25 1061.99 218.144 1062.08 216.5C1062.18 214.785 1062.14 204.235 1062.04 203.25C1062.01 202.975 1043.65 202.75 1021.23 202.75H980.483L980.219 170.5L979.955 138.25H1010.95H1041.95L1042.52 135.947C1042.84 134.68 1042.96 131.192 1042.79 128.197L1042.48 122.75L1011.23 122.486L979.983 122.222V93.247V64.273L1019.23 64.012L1058.48 63.75V55.982V48.215L1004.73 47.982C975.17 47.855 950.87 48.087 950.733 48.499ZM1413.26 48.614C1412.96 49.09 1412.89 87.452 1413.1 133.864L1413.48 218.248L1427.98 218.25L1442.48 218.251L1442.19 185.78L1441.91 153.308L1444.19 152.811C1445.45 152.538 1455.93 152.134 1467.48 151.913C1490.54 151.474 1495.52 150.507 1508.38 143.968C1527.1 134.459 1536.16 115.04 1533.02 91.2C1530.21 69.909 1517.77 57.275 1492.48 50.049C1487.64 48.664 1414.05 47.331 1413.26 48.614ZM1814.72 105.75C1814.28 169.806 1814.12 171.586 1807.87 183.321C1799.41 199.185 1786.38 205.967 1766.27 204.974C1757.67 204.549 1755.04 203.997 1749.7 201.497C1738.66 196.33 1732.01 187.188 1727.82 171.394C1725.88 164.104 1725.8 161.076 1725.92 106L1726.05 48.25H1711.19H1696.33L1696.51 107C1696.7 170.859 1696.96 174.348 1702.43 186.716C1713.77 212.356 1743.13 225.354 1779.13 220.667C1798.88 218.096 1813.1 209.056 1822.24 193.25C1825.95 186.838 1829.02 178.618 1830.05 172.329C1831.03 166.314 1831.47 49.398 1830.51 48.44C1830.18 48.108 1826.58 47.817 1822.51 47.793L1815.11 47.75L1814.72 105.75ZM1088.63 113.93C1088.71 150.131 1088.83 188.425 1088.88 199.027L1088.98 218.305L1103.23 218.027L1117.48 217.75L1117.75 182.5L1118.01 147.25H1130.27C1139.54 147.25 1143.06 147.616 1144.67 148.744C1148.33 151.304 1155.33 161.427 1164.48 177.394C1169.32 185.84 1176.67 198.488 1180.8 205.5L1188.32 218.25H1204.69H1221.05L1219.86 216C1219.2 214.762 1216.54 210.6 1213.94 206.75C1211.35 202.9 1208.31 197.95 1207.21 195.75C1204.14 189.654 1186.35 160.512 1182.44 155.189C1180.54 152.601 1177.15 148.821 1174.9 146.789C1172.65 144.757 1170.96 142.985 1171.15 142.852C1171.33 142.718 1174.18 141.601 1177.48 140.37C1196.97 133.102 1207.94 117.389 1207.97 96.71C1208 77.991 1198.78 63.028 1182.39 55.207C1169.05 48.841 1169.92 48.947 1127.48 48.51L1088.48 48.109L1088.63 113.93ZM1291.53 50.5C1291.9 51.738 1292.86 54.158 1293.65 55.878C1295.18 59.195 1294.29 62.021 1282.83 90.25C1281.16 94.375 1274.84 109.9 1268.8 124.75C1262.76 139.6 1256.33 155.575 1254.51 160.25C1252.69 164.925 1246.7 179.775 1241.19 193.25L1231.18 217.75L1240.21 218.039C1245.18 218.198 1249.41 218.158 1249.62 217.95C1250.2 217.367 1261.95 186.867 1261.97 185.888C1261.98 185.414 1263.42 181.926 1265.18 178.138L1268.37 171.25H1304.55H1340.74L1342.77 176C1343.88 178.613 1346.92 186.15 1349.51 192.75C1352.11 199.35 1355.59 207.788 1357.24 211.5L1360.25 218.25H1376.08H1391.9L1388.87 211.5C1383.7 199.994 1366.64 158.659 1343.97 102.75C1335.28 81.3 1326.69 60.262 1324.88 56L1321.6 48.25H1306.22H1290.85L1291.53 50.5ZM1559.98 133.25V218.25H1616.03H1672.07L1671.78 210.52L1671.48 202.79L1630.48 202.77L1589.48 202.75L1589.22 170.514L1588.96 138.279L1620.22 138.014L1651.48 137.75V130.25V122.75L1631.48 122.656C1620.48 122.605 1606.42 122.492 1600.23 122.406L1588.98 122.25V93.261V64.273L1628.72 64.011L1668.45 63.75L1668.6 56L1668.76 48.25H1614.37H1559.98V133.25ZM1853.19 56L1853.48 63.75L1880.23 64.016L1906.98 64.283L1907.21 136.016C1907.33 175.47 1907.34 210.088 1907.23 212.945L1907.03 218.139L1919.88 218.445C1926.94 218.613 1933.46 218.605 1934.36 218.427C1935.84 218.131 1935.98 211.469 1935.98 141.177V64.25H1963.48H1990.98V56.25V48.25H1921.94H1852.9L1853.19 56ZM2013.98 133.25V218.25H2028.48H2042.98V133.25V48.25H2028.48H2013.98V133.25ZM1117.98 97.252V132.448L1135.23 132.086C1151.29 131.749 1152.87 131.544 1158.03 129.136C1168.91 124.06 1174.89 116.619 1177.04 105.475C1180.44 87.899 1174.01 72.835 1160.2 66.035C1153.54 62.752 1153.52 62.75 1135.76 62.403L1117.98 62.056V97.252ZM1442.22 100L1442.48 137.75L1455.48 138.035C1477.53 138.519 1486.41 136.023 1494.45 127.081C1500.72 120.102 1503.44 112.005 1503.47 100.25C1503.49 88.822 1501.44 81.718 1496.1 74.647C1488.9 65.111 1480.04 62.289 1457.22 62.266L1441.96 62.25L1442.22 100ZM1302.23 85.489C1301.06 88.382 1298.01 96.15 1295.45 102.75C1282.58 135.892 1278.42 145.98 1274.88 152.541C1274.35 153.526 1274.15 154.704 1274.43 155.159C1274.71 155.615 1288.51 156.072 1305.09 156.176C1329.57 156.329 1335.14 156.118 1334.72 155.057C1334.44 154.338 1330.99 145.974 1327.06 136.469C1320.77 121.251 1311.53 97.552 1307.28 85.75C1305.13 79.77 1304.56 79.741 1302.23 85.489Z" fill="#FAFAFA"/>
</svg>
